<?xml version="1.0" encoding="UTF-8" standalone="no"?>
<svg
   width="120"
   height="30.40604"
   version="1.1"
   id="svg3"
   sodipodi:docname="linkedin.svg"
   inkscape:version="1.3 (0e150ed, 2023-07-21)"
   xmlns:inkscape="http://www.inkscape.org/namespaces/inkscape"
   xmlns:sodipodi="http://sodipodi.sourceforge.net/DTD/sodipodi-0.dtd"
   xmlns="http://www.w3.org/2000/svg"
   xmlns:svg="http://www.w3.org/2000/svg">
  <defs
     id="defs3" />
  <sodipodi:namedview
     id="namedview3"
     pagecolor="#ffffff"
     bordercolor="#000000"
     borderopacity="0.25"
     inkscape:showpageshadow="2"
     inkscape:pageopacity="0.0"
     inkscape:pagecheckerboard="0"
     inkscape:deskcolor="#d1d1d1"
     inkscape:zoom="3.6166667"
     inkscape:cx="25.023041"
     inkscape:cy="40.368663"
     inkscape:window-width="3440"
     inkscape:window-height="1387"
     inkscape:window-x="0"
     inkscape:window-y="25"
     inkscape:window-maximized="1"
     inkscape:current-layer="svg3" />
  <g
     transform="scale(0.49729389)"
     id="g3">
    <path
       d="m 26.896,43.398 v 8.704 H 0 V 9.043 H 9.433 V 43.398 Z M 31.062,22.9 h 9.066 V 52.1 H 31.062 Z M 35.596,8.395 a 5.26,5.26 0 0 1 5.259,5.257 c 0,2.906 -2.356,5.255 -5.26,5.255 -2.904,0 -5.256,-2.35 -5.256,-5.255 a 5.26,5.26 0 0 1 5.256,-5.257 m 61.76,14.502 h 11.1 l -11.9,13.5 11.652,15.703 H 96.825 L 87.205,37.675 H 87.088 V 52.1 H 78.025 V 9.04 h 9.063 v 25.735 z m -52.212,0.017 h 8.702 v 4 h 0.12 c 1.208,-2.297 4.17,-4.713 8.58,-4.713 9.188,0 10.88,6.043 10.88,13.898 v 16 H 64.36 V 37.903 c 0,-3.386 -0.062,-7.735 -4.716,-7.735 -4.713,0 -5.436,3.687 -5.436,7.493 v 14.43 H 45.142 V 22.914 Z m 82.407,11.194 c 0.06,-3.022 -2.298,-5.56 -5.564,-5.56 -3.987,0 -6.164,2.72 -6.403,5.56 z m 7.674,12.93 c -2.9,3.687 -7.673,5.804 -12.4,5.804 -9.064,0 -16.317,-6.047 -16.317,-15.414 0,-9.367 7.253,-15.4 16.317,-15.4 8.468,0 13.78,6.043 13.78,15.4 v 2.84 h -21.032 c 0.72,3.445 3.323,5.68 6.83,5.68 2.962,0 4.955,-1.5 6.467,-3.567 z m 20.27,-17.072 c -4.53,0 -7.248,3.024 -7.248,7.432 0,4.416 2.72,7.434 7.248,7.434 4.536,0 7.257,-3.018 7.257,-7.434 -0.001,-4.408 -2.72,-7.432 -7.257,-7.432 m 15.6,22.12 h -8.342 v -3.87 h -0.118 c -1.395,2.115 -4.897,4.594 -9.008,4.594 -8.706,0 -14.446,-6.283 -14.446,-15.17 0,-8.16 5.076,-15.654 13.416,-15.654 3.75,0 7.255,1.027 9.3,3.867 h 0.118 V 9.04 h 9.07 z"
       id="path1" />
    <path
       d="m 236.78,0 h -52.107 c -2.5,0 -4.513,1.974 -4.513,4.406 v 52.327 c 0,2.435 2.023,4.41 4.513,4.41 h 52.107 c 2.494,0 4.526,-1.976 4.526,-4.41 V 4.406 C 241.307,1.974 239.275,0 236.78,0 Z"
       fill="#0177b5"
       id="path2" />
    <path
       d="m 189.226,22.923 h 9.07 v 29.18 h -9.07 z m 4.537,-14.505 a 5.26,5.26 0 0 1 5.255,5.257 5.26,5.26 0 0 1 -5.255,5.259 5.26,5.26 0 0 1 -5.26,-5.259 5.26,5.26 0 0 1 5.26,-5.257 m 10.22,14.505 h 8.698 V 26.9 h 0.12 c 1.2,-2.294 4.17,-4.713 8.58,-4.713 9.184,0 10.88,6.044 10.88,13.9 V 52.092 H 223.2 v -14.2 c 0,-3.384 -0.062,-7.737 -4.713,-7.737 -4.72,0 -5.443,3.686 -5.443,7.492 v 14.435 h -9.06 v -29.18 z"
       fill="#ffffff"
       id="path3" />
  </g>
</svg>
