<svg id="Layer_1" data-name="Layer 1" xmlns="http://www.w3.org/2000/svg" xmlns:xlink="http://www.w3.org/1999/xlink" viewBox="0 0 386.89 109.46"><defs><style>.cls-1{fill:#fff;}.cls-2{fill:url(#linear-gradient);}.cls-3{fill:url(#linear-gradient-2);}.cls-4{fill:url(#linear-gradient-3);}.cls-5{fill:url(#linear-gradient-4);}.cls-6{isolation:isolate;}.cls-7{fill:#353535;}</style><linearGradient id="linear-gradient" x1="94.15" y1="75.6" x2="116.04" y2="53.72" gradientTransform="matrix(1, 0, 0, -1, -5, 106.94)" gradientUnits="userSpaceOnUse"><stop offset="0" stop-color="#cbcbcb"/><stop offset="0.24" stop-color="#cbcbb4"/><stop offset="0.75" stop-color="#cbcb78"/><stop offset="1" stop-color="#cbcb58"/></linearGradient><linearGradient id="linear-gradient-2" x1="61.82" y1="88.61" x2="102.37" y2="88.61" gradientTransform="matrix(1, 0, 0, -1, -5, 106.94)" gradientUnits="userSpaceOnUse"><stop offset="0" stop-color="#4aa179"/><stop offset="1" stop-color="#82ab68"/></linearGradient><linearGradient id="linear-gradient-3" x1="79.91" y1="70.45" x2="79.91" y2="88.31" gradientTransform="matrix(1, 0, 0, -1, -5, 106.94)" gradientUnits="userSpaceOnUse"><stop offset="0" stop-color="#e5e5e5"/><stop offset="0.25" stop-color="#e0e0ce"/><stop offset="0.76" stop-color="#d2d292"/><stop offset="1" stop-color="#cbcb74"/></linearGradient><linearGradient id="linear-gradient-4" x1="98.38" y1="13.43" x2="18.87" y2="92.94" gradientTransform="matrix(1, 0, 0, -1, -5, 106.94)" gradientUnits="userSpaceOnUse"><stop offset="0" stop-color="#ffc145"/><stop offset="1" stop-color="#299b81"/></linearGradient></defs><path class="cls-1" d="M224.49,79.76a1.5,1.5,0,0,0,0-3h0a1.5,1.5,0,0,0,0,3Z" transform="translate(0.27 0)"/><path class="cls-2" d="M109.47,54.74v.1H94.91a42.27,42.27,0,0,0-5.82-11.75c.4-.69,5.37-9.43,6-17.69H101A54.53,54.53,0,0,1,109.47,54.74Z" transform="translate(0.27 0)"/><path class="cls-3" d="M92.06,14.79c2.67,2.8,3.35,6.66,3,10.64l-40.37-.17h-.1s5.84-6.85,13.08-10.47c6-3,17.83-6,23.87-.47A4,4,0,0,1,92.06,14.79Z" transform="translate(0.27 0)"/><path class="cls-4" d="M54.73,25.26l40.37.17c-.66,8.26-5.63,17-6,17.69A42,42,0,0,0,54.73,25.36Z" transform="translate(0.27 0)"/><path class="cls-5" d="M95,54.84h14.49A54.74,54.74,0,0,1,55.3,109.46,42.08,42.08,0,0,0,94.89,54.87ZM91.61,14.29h0c.16.15.33.31.48.47,2.67,2.8,3.35,6.66,3,10.64H101A54.7,54.7,0,0,0,91.61,14.29ZM54.73,0a54.73,54.73,0,1,0-.54,109.46,42.05,42.05,0,0,1,.54-84.1v-.1h-.1s5.84-6.85,13.08-10.47c6.05-3,17.83-6,23.87-.47h0A54.48,54.48,0,0,0,54.73,0Z" transform="translate(0.27 0)"/><path class="cls-1" d="M293.79,68.94a1.5,1.5,0,1,0-1.5-1.5A1.5,1.5,0,0,0,293.79,68.94Z" transform="translate(0.27 0)"/><g class="cls-6"><g class="cls-6"><path class="cls-7" d="M180.69,71.61l-1.52.23c0-.56-.27-.84-.65-.84a.53.53,0,0,0-.54.29,2.7,2.7,0,0,0-.13,1v1.31h1.48v1.53h-1.48v5.63h1.63v1.52h-4.61V80.79h1.27V75.16h-1.27V73.63h1.27V72.29a3,3,0,0,1,.58-1.94,2.07,2.07,0,0,1,1.72-.74,2.26,2.26,0,0,1,1.52.5A2.43,2.43,0,0,1,180.69,71.61Z" transform="translate(0.27 0)"/></g><g class="cls-6"><path class="cls-7" d="M183.53,78.83v2h1.89v1.52h-5.33V80.79h1.74V75.16h-1.74V73.63h3.1v2A3.44,3.44,0,0,1,184.48,74a4.45,4.45,0,0,1,2.21-.45h.39v1.72h-.37a4.42,4.42,0,0,0-2.07.37,1.73,1.73,0,0,0-.89,1.09A7.73,7.73,0,0,0,183.53,78.83Z" transform="translate(0.27 0)"/></g><g class="cls-6"><path class="cls-7" d="M196.13,78a4.52,4.52,0,0,1-.6,2.31,4.55,4.55,0,0,1-3.95,2.28,4.56,4.56,0,0,1-2.35-.62,4.2,4.2,0,0,1-1.63-1.66A4.62,4.62,0,0,1,187,78a4.75,4.75,0,0,1,.59-2.36A4.16,4.16,0,0,1,189.22,74a4.72,4.72,0,0,1,2.36-.59,4.48,4.48,0,0,1,2.32.62,4.63,4.63,0,0,1,1.64,1.68A4.58,4.58,0,0,1,196.13,78Zm-4.55,2.93a2.65,2.65,0,0,0,1.4-.4,2.76,2.76,0,0,0,1-1.07,3.18,3.18,0,0,0,0-2.9,2.86,2.86,0,0,0-1-1.08,2.64,2.64,0,0,0-2.81,0,2.81,2.81,0,0,0-1,1.08,3.12,3.12,0,0,0,0,2.91,2.74,2.74,0,0,0,1,1.07A2.65,2.65,0,0,0,191.58,80.91Z" transform="translate(0.27 0)"/><path class="cls-7" d="M205.68,76.47v4.32h1.46v1.52H204V76.58a2.14,2.14,0,0,0-.23-1.17.86.86,0,0,0-.77-.36,4.35,4.35,0,0,0-2.56,1.12v4.62h1.49v1.52h-4.71V80.79h1.53V75.16h-1.53V73.63h3.22v1.05a5.13,5.13,0,0,1,3-1.16,2.05,2.05,0,0,1,1.72.71A3.6,3.6,0,0,1,205.68,76.47Z" transform="translate(0.27 0)"/><path class="cls-7" d="M212.45,73.63v1.53h-1.59v4.55a1.82,1.82,0,0,0,.15.92.61.61,0,0,0,.53.21,2.69,2.69,0,0,0,.91-.16v1.55a5,5,0,0,1-1.28.23,2,2,0,0,1-1.55-.54,2.87,2.87,0,0,1-.47-1.86v-4.9H208V73.63h1.13V72.32l1.71-1.56v2.87Z" transform="translate(0.27 0)"/></g><g class="cls-6"><path class="cls-7" d="M213.54,78.86V77.15h5.36v1.71Z" transform="translate(0.27 0)"/></g><g class="cls-6"><path class="cls-7" d="M229.94,78.4h-7.27a3,3,0,0,0,1,2,2.84,2.84,0,0,0,2,.73,3.58,3.58,0,0,0,1.6-.36,3.12,3.12,0,0,0,1.23-1.09l1.5.68A4.54,4.54,0,0,1,228.08,82a5.6,5.6,0,0,1-2.51.57,5.18,5.18,0,0,1-2.49-.59,4.26,4.26,0,0,1-1.7-1.64,4.89,4.89,0,0,1,0-4.71A4.31,4.31,0,0,1,223,74a4.63,4.63,0,0,1,2.3-.59,4.54,4.54,0,0,1,2.39.61,4.19,4.19,0,0,1,1.6,1.73A6.1,6.1,0,0,1,229.94,78.4Zm-4.6-3.58a2.47,2.47,0,0,0-1.69.65,3,3,0,0,0-.94,1.71h5.44a3,3,0,0,0-1-1.71A2.72,2.72,0,0,0,225.34,74.82Z" transform="translate(0.27 0)"/><path class="cls-7" d="M239.49,76.47v4.32H241v1.52h-3.17V76.58a2.14,2.14,0,0,0-.23-1.17.86.86,0,0,0-.77-.36,4.35,4.35,0,0,0-2.56,1.12v4.62h1.49v1.52H231V80.79h1.53V75.16H231V73.63h3.22v1.05a5.13,5.13,0,0,1,3-1.16,2.05,2.05,0,0,1,1.72.71A3.6,3.6,0,0,1,239.49,76.47Z" transform="translate(0.27 0)"/><path class="cls-7" d="M252.53,80.79v1.52h-3.26V81a4.11,4.11,0,0,1-3.11,1.42,4.06,4.06,0,0,1-3.72-2.2,5,5,0,0,1,0-4.56A4.42,4.42,0,0,1,244,74a4.08,4.08,0,0,1,2.17-.62,3.76,3.76,0,0,1,1.59.34,4.82,4.82,0,0,1,1.47,1.06V71.37h-1.68v-1.5H251V80.79Zm-6.05.15a2.55,2.55,0,0,0,1.43-.42,3,3,0,0,0,1-1.13,3.19,3.19,0,0,0,.36-1.5,3.09,3.09,0,0,0-.36-1.48,2.83,2.83,0,0,0-1-1,2.76,2.76,0,0,0-1.45-.39,2.46,2.46,0,0,0-1.41.42,2.78,2.78,0,0,0-1,1.1,3.14,3.14,0,0,0-.36,1.48,3.22,3.22,0,0,0,.36,1.52,2.89,2.89,0,0,0,1,1.06A2.62,2.62,0,0,0,246.48,80.94Z" transform="translate(0.27 0)"/><path class="cls-7" d="M268.58,80.79v1.52h-3.26V81a4.11,4.11,0,0,1-3.11,1.42,4.18,4.18,0,0,1-2.22-.59,4.06,4.06,0,0,1-1.49-1.61A4.69,4.69,0,0,1,258,78a4.83,4.83,0,0,1,.57-2.32A4.5,4.5,0,0,1,260.09,74a4.08,4.08,0,0,1,2.17-.62,3.76,3.76,0,0,1,1.59.34,4.71,4.71,0,0,1,1.47,1.06V71.37h-1.68v-1.5H267V80.79Zm-6.05.15a2.55,2.55,0,0,0,1.43-.42,3,3,0,0,0,1-1.13,3.19,3.19,0,0,0,.36-1.5,3.09,3.09,0,0,0-.36-1.48,2.83,2.83,0,0,0-1-1A2.74,2.74,0,0,0,262.5,75a2.41,2.41,0,0,0-1.4.42,2.8,2.8,0,0,0-1,1.1,3.14,3.14,0,0,0-.36,1.48,3.22,3.22,0,0,0,.36,1.52,2.83,2.83,0,0,0,1,1.06A2.57,2.57,0,0,0,262.53,80.94Z" transform="translate(0.27 0)"/><path class="cls-7" d="M278.6,78.4h-7.28a3,3,0,0,0,1,2,2.84,2.84,0,0,0,2,.73,3.57,3.57,0,0,0,1.59-.36,3.12,3.12,0,0,0,1.23-1.09l1.51.68A4.66,4.66,0,0,1,276.74,82a5.6,5.6,0,0,1-2.51.57,5.15,5.15,0,0,1-2.49-.59,4.2,4.2,0,0,1-1.7-1.64,4.54,4.54,0,0,1-.61-2.36,4.64,4.64,0,0,1,.6-2.35A4.31,4.31,0,0,1,271.67,74a4.88,4.88,0,0,1,4.69,0,4.19,4.19,0,0,1,1.6,1.73A6.25,6.25,0,0,1,278.6,78.4ZM274,74.82a2.45,2.45,0,0,0-1.69.65,3,3,0,0,0-.94,1.71h5.44a3,3,0,0,0-1-1.71A2.74,2.74,0,0,0,274,74.82Z" transform="translate(0.27 0)"/><path class="cls-7" d="M282.81,75.16l1.87,4.92,1.87-4.92h-1.21V73.63h4.16v1.53h-1.32l-2.76,7.3h-1.55l-2.82-7.3h-1.54V73.63h4.43v1.53Z" transform="translate(0.27 0)"/><path class="cls-7" d="M299.59,78.4h-7.28a3,3,0,0,0,1,2,2.84,2.84,0,0,0,2,.73,3.57,3.57,0,0,0,1.59-.36,3.12,3.12,0,0,0,1.23-1.09l1.51.68A4.62,4.62,0,0,1,297.72,82a5.53,5.53,0,0,1-2.5.57,5.22,5.22,0,0,1-2.5-.59A4.23,4.23,0,0,1,291,80.34a4.54,4.54,0,0,1-.61-2.36,4.64,4.64,0,0,1,.6-2.35A4.24,4.24,0,0,1,292.66,74,4.59,4.59,0,0,1,295,73.4a4.52,4.52,0,0,1,2.39.61A4.21,4.21,0,0,1,299,75.74,6.25,6.25,0,0,1,299.59,78.4ZM295,74.82a2.49,2.49,0,0,0-1.7.65,3,3,0,0,0-.93,1.71h5.43a3,3,0,0,0-1-1.71A2.74,2.74,0,0,0,295,74.82Z" transform="translate(0.27 0)"/><path class="cls-7" d="M305.12,80.79v1.52h-4.57V80.79h1.54V71.37h-1.54v-1.5h3.25V80.79Z" transform="translate(0.27 0)"/><path class="cls-7" d="M315.41,78a4.52,4.52,0,0,1-.6,2.31,4.52,4.52,0,0,1-3.95,2.28,4.58,4.58,0,0,1-2.35-.62,4.26,4.26,0,0,1-1.63-1.66A4.61,4.61,0,0,1,306.3,78a4.74,4.74,0,0,1,.58-2.36A4.23,4.23,0,0,1,308.5,74a4.75,4.75,0,0,1,2.36-.59,4.45,4.45,0,0,1,2.32.62,4.56,4.56,0,0,1,1.64,1.68A4.48,4.48,0,0,1,315.41,78Zm-4.55,2.93a2.62,2.62,0,0,0,1.4-.4,2.76,2.76,0,0,0,1-1.07,3.1,3.1,0,0,0,0-2.9,2.86,2.86,0,0,0-1-1.08,2.56,2.56,0,0,0-1.41-.41,2.65,2.65,0,0,0-1.4.4,3,3,0,0,0-1,1.08,3.12,3.12,0,0,0,0,2.91,2.81,2.81,0,0,0,1,1.07A2.68,2.68,0,0,0,310.86,80.91Z" transform="translate(0.27 0)"/><path class="cls-7" d="M326.83,78a4.71,4.71,0,0,1-.56,2.27A4.23,4.23,0,0,1,324.74,82a3.94,3.94,0,0,1-2.15.62,4.14,4.14,0,0,1-3-1.34v3.45h1.7V86.2h-5V84.68h1.57V75.16h-1.45V73.63h3.16V75A4.37,4.37,0,0,1,321,73.89a3.77,3.77,0,0,1,1.66-.37,4,4,0,0,1,2.19.6,4.14,4.14,0,0,1,1.49,1.64A4.79,4.79,0,0,1,326.83,78Zm-4.27,3a2.08,2.08,0,0,0,1.28-.41,2.8,2.8,0,0,0,.9-1.12,3.64,3.64,0,0,0,.32-1.5,3.09,3.09,0,0,0-.36-1.48,2.78,2.78,0,0,0-1-1.07,2.49,2.49,0,0,0-1.4-.4,2.59,2.59,0,0,0-1.45.42,3,3,0,0,0-1,1.13,3.33,3.33,0,0,0-.35,1.55,2.7,2.7,0,0,0,.85,2.12A3.15,3.15,0,0,0,322.56,81Z" transform="translate(0.27 0)"/><path class="cls-7" d="M329.42,80.79V75.16H328V73.63h3.16v1.1a4.85,4.85,0,0,1,3-1.21,2,2,0,0,1,2.06,1.35,5.12,5.12,0,0,1,3.15-1.35,2.26,2.26,0,0,1,1.67.62,2.57,2.57,0,0,1,.62,1.89v4.76h1.52v1.52h-3.21v-5.5a5.63,5.63,0,0,0-.06-.92,1.14,1.14,0,0,0-.3-.61,1.06,1.06,0,0,0-.77-.24,2.7,2.7,0,0,0-1.1.28,5.54,5.54,0,0,0-1.32.84v4.63h1.47v1.52h-3.18V76.6a2.23,2.23,0,0,0-.25-1.2,1,1,0,0,0-.83-.36,4.64,4.64,0,0,0-2.47,1.12v4.63h1.53v1.52h-4.79V80.79Z" transform="translate(0.27 0)"/><path class="cls-7" d="M353.21,78.4h-7.28a3,3,0,0,0,1,2,2.84,2.84,0,0,0,2,.73,3.57,3.57,0,0,0,1.59-.36,3.12,3.12,0,0,0,1.23-1.09l1.51.68A4.62,4.62,0,0,1,351.34,82a5.53,5.53,0,0,1-2.5.57,5.22,5.22,0,0,1-2.5-.59,4.23,4.23,0,0,1-1.69-1.64A4.54,4.54,0,0,1,344,78a4.64,4.64,0,0,1,.6-2.35A4.24,4.24,0,0,1,346.28,74a4.59,4.59,0,0,1,2.29-.59A4.52,4.52,0,0,1,351,74a4.21,4.21,0,0,1,1.61,1.73A6.25,6.25,0,0,1,353.21,78.4Zm-4.6-3.58a2.49,2.49,0,0,0-1.7.65,3,3,0,0,0-.93,1.71h5.43a3,3,0,0,0-1-1.71A2.74,2.74,0,0,0,348.61,74.82Z" transform="translate(0.27 0)"/><path class="cls-7" d="M362.76,76.47v4.32h1.45v1.52h-3.16V76.58a2.13,2.13,0,0,0-.24-1.17.84.84,0,0,0-.77-.36,4.37,4.37,0,0,0-2.56,1.12v4.62H359v1.52h-4.71V80.79h1.53V75.16h-1.53V73.63h3.21v1.05a5.13,5.13,0,0,1,3-1.16,2.05,2.05,0,0,1,1.72.71A3.67,3.67,0,0,1,362.76,76.47Z" transform="translate(0.27 0)"/><path class="cls-7" d="M369.52,73.63v1.53h-1.58v4.55a1.82,1.82,0,0,0,.15.92.6.6,0,0,0,.52.21,2.61,2.61,0,0,0,.91-.16v1.55a5,5,0,0,1-1.28.23,1.94,1.94,0,0,1-1.54-.54,2.81,2.81,0,0,1-.47-1.86v-4.9H365.1V73.63h1.13V72.32l1.71-1.56v2.87Z" transform="translate(0.27 0)"/><path class="cls-7" d="M383.19,72.33a2.21,2.21,0,0,1-.37,1.32,2.75,2.75,0,0,1-.87.83,11.11,11.11,0,0,1-1.38.68l2.53,3.43a8.92,8.92,0,0,0,1-2.86h2.55v1.53h-1.3a7.36,7.36,0,0,1-1.25,2.65l.66.85h1.89v1.55H383.8l-.83-1.1a5.34,5.34,0,0,1-3.33,1.31,4.66,4.66,0,0,1-2.27-.56,4.25,4.25,0,0,1-1.59-1.5,4.08,4.08,0,0,1-.57-2.12,3.48,3.48,0,0,1,.7-2.19,5.35,5.35,0,0,1,2.14-1.57,3.52,3.52,0,0,1-.87-2.18,2.5,2.5,0,0,1,.43-1.42,2.78,2.78,0,0,1,1.12-1,3.35,3.35,0,0,1,3,0,2.65,2.65,0,0,1,1.08,1A2.54,2.54,0,0,1,383.19,72.33ZM379.84,81A3,3,0,0,0,382,80l-3-4.23a4,4,0,0,0-1.45,1.06,2.2,2.2,0,0,0-.48,1.42,2.75,2.75,0,0,0,1.37,2.37A2.77,2.77,0,0,0,379.84,81Zm-.17-7a5.41,5.41,0,0,0,1.45-.82,1.16,1.16,0,0,0,.42-.88,1.14,1.14,0,0,0-.34-.81,1.25,1.25,0,0,0-.95-.35,1.33,1.33,0,0,0-1,.34,1.15,1.15,0,0,0-.36.88,1.43,1.43,0,0,0,.12.49C379.14,73,379.34,73.42,379.67,74Z" transform="translate(0.27 0)"/></g><g class="cls-6"><path class="cls-7" d="M163.92,92.77,165.56,98l1.66-5.23h-.93V91.24h4.17v1.53h-1L171.18,98l1.67-5.23h-1.2V91.24h3.9v1.53H174.3l-2.31,7.3h-1.61l-2-6.27-2,6.27h-1.59l-2.33-7.3h-1V91.24h3.65v1.53Z" transform="translate(0.27 0)"/><path class="cls-7" d="M185.64,96h-7.28a3,3,0,0,0,1,2,2.84,2.84,0,0,0,2,.73,3.57,3.57,0,0,0,1.59-.36,3.12,3.12,0,0,0,1.23-1.09l1.51.68a4.62,4.62,0,0,1-1.87,1.67,5.53,5.53,0,0,1-2.5.57,5.22,5.22,0,0,1-2.5-.59A4.28,4.28,0,0,1,177.08,98a4.91,4.91,0,0,1,0-4.72,4.38,4.38,0,0,1,1.64-1.64A4.59,4.59,0,0,1,181,91a4.52,4.52,0,0,1,2.39.61A4.21,4.21,0,0,1,185,93.35,6.25,6.25,0,0,1,185.64,96ZM181,92.43a2.49,2.49,0,0,0-1.7.65,3,3,0,0,0-.93,1.71h5.43a2.94,2.94,0,0,0-1-1.71A2.74,2.74,0,0,0,181,92.43Z" transform="translate(0.27 0)"/><path class="cls-7" d="M193,91a3.91,3.91,0,0,1,2.16.61,4.12,4.12,0,0,1,1.51,1.64,4.71,4.71,0,0,1,.54,2.23,4.8,4.8,0,0,1-.55,2.28,4.38,4.38,0,0,1-1.51,1.68,4,4,0,0,1-2.17.62,4.29,4.29,0,0,1-1.8-.39,3.25,3.25,0,0,1-1.34-1.06v1.3h-3.2V98.4h1.54V89H186.6v-1.5h3.2v5A4.07,4.07,0,0,1,193,91Zm-.36,7.54a2.51,2.51,0,0,0,1.45-.44A2.89,2.89,0,0,0,195,97a3.38,3.38,0,0,0,.35-1.51A3,3,0,0,0,195,94a2.68,2.68,0,0,0-1-1,2.63,2.63,0,0,0-1.42-.39,2.57,2.57,0,0,0-1.42.41,2.75,2.75,0,0,0-1,1.1,3.27,3.27,0,0,0-.36,1.54,3,3,0,0,0,.37,1.49,2.73,2.73,0,0,0,1,1.06A2.57,2.57,0,0,0,192.6,98.55Z" transform="translate(0.27 0)"/><path class="cls-7" d="M210.43,94.31V98.4h1.45v1.52h-2.95V98.85a3.88,3.88,0,0,1-2.76,1.22,3,3,0,0,1-1.46-.37,2.94,2.94,0,0,1-1.07-1,2.45,2.45,0,0,1-.4-1.38,2.54,2.54,0,0,1,.44-1.46,2.91,2.91,0,0,1,1.2-1,3.44,3.44,0,0,1,1.51-.35,4.22,4.22,0,0,1,2.37.74v-.93a2.09,2.09,0,0,0-.43-1.46,2,2,0,0,0-1.42-.43,2.43,2.43,0,0,0-1.16.25,2.07,2.07,0,0,0-.77.76l-1.63-.4a3.64,3.64,0,0,1,1.49-1.54,4.63,4.63,0,0,1,2.24-.51,3.57,3.57,0,0,1,2.55.79A3.44,3.44,0,0,1,210.43,94.31Zm-4,4.45a3.39,3.39,0,0,0,2.36-1.05v-1a3.64,3.64,0,0,0-2.23-.87,1.74,1.74,0,0,0-1.17.43,1.34,1.34,0,0,0-.49,1.07,1.37,1.37,0,0,0,.43,1A1.53,1.53,0,0,0,206.4,98.76Z" transform="translate(0.27 0)"/><path class="cls-7" d="M219.55,91.87v-.63h1.52v3.29h-1.52a2,2,0,0,0-.76-1.45,2.48,2.48,0,0,0-1.53-.5,2.27,2.27,0,0,0-1.33.4,2.6,2.6,0,0,0-.92,1.07,3.45,3.45,0,0,0-.32,1.48,3.28,3.28,0,0,0,.73,2.22,2.36,2.36,0,0,0,1.91.87,2.66,2.66,0,0,0,2.61-1.71l1.42.67a4.19,4.19,0,0,1-4.1,2.6,4.33,4.33,0,0,1-2.3-.62,4.12,4.12,0,0,1-1.56-1.67,5,5,0,0,1-.55-2.36,4.81,4.81,0,0,1,.56-2.31,4.08,4.08,0,0,1,1.53-1.63,4.22,4.22,0,0,1,2.17-.58A3.67,3.67,0,0,1,219.55,91.87Z" transform="translate(0.27 0)"/><path class="cls-7" d="M229.1,91.87v-.63h1.52v3.29H229.1a2,2,0,0,0-.76-1.45,2.48,2.48,0,0,0-1.53-.5,2.29,2.29,0,0,0-1.33.4,2.58,2.58,0,0,0-.91,1.07,3.7,3.7,0,0,0,.4,3.7,2.38,2.38,0,0,0,1.92.87,2.65,2.65,0,0,0,2.6-1.71l1.42.67a4.18,4.18,0,0,1-4.1,2.6,4.33,4.33,0,0,1-2.3-.62A4.12,4.12,0,0,1,223,97.89a5.16,5.16,0,0,1-.55-2.36,4.81,4.81,0,0,1,.56-2.31,4.08,4.08,0,0,1,1.53-1.63,4.26,4.26,0,0,1,2.18-.58A3.67,3.67,0,0,1,229.1,91.87Z" transform="translate(0.27 0)"/><path class="cls-7" d="M241.12,96h-7.27a3,3,0,0,0,1,2,2.84,2.84,0,0,0,2,.73,3.57,3.57,0,0,0,1.59-.36,3.12,3.12,0,0,0,1.23-1.09l1.5.68a4.54,4.54,0,0,1-1.86,1.67,5.57,5.57,0,0,1-2.51.57,5.2,5.2,0,0,1-2.49-.59,4.3,4.3,0,0,1-1.7-1.63,4.69,4.69,0,0,1-.6-2.37,4.64,4.64,0,0,1,.6-2.35,4.31,4.31,0,0,1,1.64-1.64,4.86,4.86,0,0,1,4.68,0,4.21,4.21,0,0,1,1.61,1.73A6.1,6.1,0,0,1,241.12,96Zm-4.6-3.58a2.49,2.49,0,0,0-1.69.65,3,3,0,0,0-.93,1.71h5.43a3,3,0,0,0-1-1.71A2.75,2.75,0,0,0,236.52,92.43Z" transform="translate(0.27 0)"/><path class="cls-7" d="M247.67,91.61v-.37h1.49v2.88h-1.49v-.53a2.35,2.35,0,0,0-2-1.06,1.91,1.91,0,0,0-1.11.3.91.91,0,0,0-.43.76.78.78,0,0,0,.33.67,3.88,3.88,0,0,0,1.46.42l1.15.22c1.71.31,2.57,1.15,2.57,2.52a2.31,2.31,0,0,1-.93,1.92,3.85,3.85,0,0,1-2.46.73,4.06,4.06,0,0,1-1.2-.18,3.51,3.51,0,0,1-1-.44v.47h-1.52V97H244v.3a1.5,1.5,0,0,0,.7,1,2.36,2.36,0,0,0,1.33.38,2.54,2.54,0,0,0,1.31-.29,1,1,0,0,0,.48-.87.68.68,0,0,0-.38-.63,6,6,0,0,0-1.53-.44l-.88-.19a3.49,3.49,0,0,1-1.92-.91,2.25,2.25,0,0,1-.61-1.64,2.16,2.16,0,0,1,.45-1.38,2.75,2.75,0,0,1,1.15-.86,3.63,3.63,0,0,1,1.44-.29A4.23,4.23,0,0,1,247.67,91.61Z" transform="translate(0.27 0)"/><path class="cls-7" d="M256.16,91.61v-.37h1.48v2.88h-1.48v-.53a2.35,2.35,0,0,0-2-1.06,1.89,1.89,0,0,0-1.11.3.89.89,0,0,0-.43.76.78.78,0,0,0,.33.67,3.82,3.82,0,0,0,1.46.42l1.15.22c1.71.31,2.57,1.15,2.57,2.52a2.31,2.31,0,0,1-.93,1.92,3.86,3.86,0,0,1-2.47.73,4.16,4.16,0,0,1-1.2-.18,3.57,3.57,0,0,1-1-.44v.47H251V97h1.52v.3a1.52,1.52,0,0,0,.69,1,2.42,2.42,0,0,0,1.34.38,2.57,2.57,0,0,0,1.31-.29,1,1,0,0,0,.48-.87.68.68,0,0,0-.38-.63,6,6,0,0,0-1.53-.44l-.88-.19a3.53,3.53,0,0,1-1.93-.91,2.29,2.29,0,0,1-.61-1.64,2.16,2.16,0,0,1,.45-1.38,2.79,2.79,0,0,1,1.16-.86,3.6,3.6,0,0,1,1.44-.29A4.23,4.23,0,0,1,256.16,91.61Z" transform="translate(0.27 0)"/><path class="cls-7" d="M263.55,98.4v1.52h-4.39V98.4h1.36V92.77h-1.36V91.24h3.07V98.4Zm-1.22-10.08a1,1,0,0,1-.31.73,1,1,0,0,1-.73.3.94.94,0,0,1-.71-.3,1,1,0,0,1,0-1.46.94.94,0,0,1,.71-.3,1,1,0,0,1,.74.29A1,1,0,0,1,262.33,88.32Z" transform="translate(0.27 0)"/><path class="cls-7" d="M270.6,91a3.91,3.91,0,0,1,2.16.61,4.12,4.12,0,0,1,1.51,1.64,4.71,4.71,0,0,1,.54,2.23,4.8,4.8,0,0,1-.55,2.28,4.46,4.46,0,0,1-1.51,1.68,4,4,0,0,1-2.17.62,4.29,4.29,0,0,1-1.8-.39,3.25,3.25,0,0,1-1.34-1.06v1.3h-3.2V98.4h1.54V89h-1.54v-1.5h3.2v5A4.07,4.07,0,0,1,270.6,91Zm-.36,7.54a2.53,2.53,0,0,0,1.45-.44,2.89,2.89,0,0,0,1-1.15,3.38,3.38,0,0,0,.35-1.51,3,3,0,0,0-.36-1.45,2.68,2.68,0,0,0-1-1,2.63,2.63,0,0,0-1.42-.39,2.57,2.57,0,0,0-1.42.41,2.68,2.68,0,0,0-1,1.1,3.27,3.27,0,0,0-.36,1.54,3,3,0,0,0,.37,1.49,2.73,2.73,0,0,0,1,1.06A2.57,2.57,0,0,0,270.24,98.55Z" transform="translate(0.27 0)"/><path class="cls-7" d="M280.26,98.4v1.52h-4.38V98.4h1.35V92.77h-1.35V91.24h3.06V98.4ZM279,88.32a1,1,0,0,1-1,1,1,1,0,0,1-.72-.3,1,1,0,0,1,0-1.46,1,1,0,0,1,.72-.3,1,1,0,0,1,1,1Z" transform="translate(0.27 0)"/><path class="cls-7" d="M285.52,98.4v1.52H281V98.4h1.54V89H281v-1.5h3.25V98.4Z" transform="translate(0.27 0)"/><path class="cls-7" d="M290.86,98.4v1.52h-4.38V98.4h1.35V92.77h-1.35V91.24h3.06V98.4Zm-1.22-10.08a1,1,0,0,1-1.75.73,1,1,0,0,1,0-1.46,1,1,0,0,1,.72-.3,1,1,0,0,1,1,1Z" transform="translate(0.27 0)"/><path class="cls-7" d="M296.22,91.24v1.53h-1.59v4.55a1.79,1.79,0,0,0,.16.92.59.59,0,0,0,.52.21,2.65,2.65,0,0,0,.91-.16v1.55a5,5,0,0,1-1.28.23,1.93,1.93,0,0,1-1.54-.54,2.81,2.81,0,0,1-.47-1.86v-4.9h-1.14V91.24h1.14V89.93l1.7-1.56v2.87Z" transform="translate(0.27 0)"/><path class="cls-7" d="M300.33,92.77l1.88,4.9,1.83-4.9h-1.16V91.24H307v1.53h-1.28l-4.29,11h-2.89v-1.49h1.71l1-2.55-2.84-7H297V91.24h4.34v1.53Z" transform="translate(0.27 0)"/><path class="cls-7" d="M317.79,91.61v-.37h1.48v2.88h-1.48v-.53a2.36,2.36,0,0,0-2-1.06,1.89,1.89,0,0,0-1.11.3.89.89,0,0,0-.43.76.78.78,0,0,0,.33.67,3.82,3.82,0,0,0,1.46.42l1.15.22c1.71.31,2.57,1.15,2.57,2.52a2.31,2.31,0,0,1-.93,1.92,3.86,3.86,0,0,1-2.47.73,4.16,4.16,0,0,1-1.2-.18,3.57,3.57,0,0,1-1-.44v.47h-1.52V97h1.52v.3a1.52,1.52,0,0,0,.69,1,2.42,2.42,0,0,0,1.34.38,2.57,2.57,0,0,0,1.31-.29,1,1,0,0,0,.48-.87.68.68,0,0,0-.38-.63,6,6,0,0,0-1.53-.44l-.88-.19a3.53,3.53,0,0,1-1.93-.91,2.29,2.29,0,0,1-.61-1.64,2.16,2.16,0,0,1,.45-1.38,2.79,2.79,0,0,1,1.16-.86,3.56,3.56,0,0,1,1.44-.29A4.23,4.23,0,0,1,317.79,91.61Z" transform="translate(0.27 0)"/><path class="cls-7" d="M330.13,95.59a4.58,4.58,0,0,1-.6,2.32,4.57,4.57,0,0,1-3.95,2.27,4.56,4.56,0,0,1-2.35-.62,4.31,4.31,0,0,1-1.63-1.65,4.67,4.67,0,0,1-.58-2.32,4.74,4.74,0,0,1,.58-2.36,4.3,4.3,0,0,1,1.62-1.63,4.72,4.72,0,0,1,2.36-.59,4.48,4.48,0,0,1,2.32.62,4.63,4.63,0,0,1,1.64,1.68A4.58,4.58,0,0,1,330.13,95.59Zm-4.55,2.93a2.65,2.65,0,0,0,1.4-.4,2.76,2.76,0,0,0,1-1.07,3.18,3.18,0,0,0,0-2.9,2.86,2.86,0,0,0-1-1.08,2.64,2.64,0,0,0-2.81,0,2.89,2.89,0,0,0-1,1.08,3.12,3.12,0,0,0,0,2.91,2.74,2.74,0,0,0,1,1.07A2.68,2.68,0,0,0,325.58,98.52Z" transform="translate(0.27 0)"/><path class="cls-7" d="M335.66,98.4v1.52H331.1V98.4h1.53V89H331.1v-1.5h3.24V98.4Z" transform="translate(0.27 0)"/><path class="cls-7" d="M340.73,98.58a4,4,0,0,0,2.49-1.11v-4.7h-1.54V91.24h3.25V98.4h1.48v1.52h-3.19v-1a4.77,4.77,0,0,1-2.86,1.15,2.16,2.16,0,0,1-1.8-.73,3.87,3.87,0,0,1-.59-2.41V92.77h-1.21V91.24h2.92v6.05a1.55,1.55,0,0,0,.25,1A1,1,0,0,0,340.73,98.58Z" transform="translate(0.27 0)"/><path class="cls-7" d="M351.77,91.24v1.53h-1.58v4.55a1.82,1.82,0,0,0,.15.92.6.6,0,0,0,.52.21,2.61,2.61,0,0,0,.91-.16v1.55a5,5,0,0,1-1.28.23,1.94,1.94,0,0,1-1.54-.54,2.81,2.81,0,0,1-.47-1.86v-4.9h-1.13V91.24h1.13V89.93l1.71-1.56v2.87Z" transform="translate(0.27 0)"/><path class="cls-7" d="M357.11,98.4v1.52h-4.39V98.4h1.36V92.77h-1.36V91.24h3.07V98.4Zm-1.23-10.08a1,1,0,0,1-.3.73,1,1,0,0,1-.73.3,1,1,0,0,1-.72-.3,1.06,1.06,0,0,1,0-1.46,1,1,0,0,1,.72-.3,1,1,0,0,1,.74.29A1,1,0,0,1,355.88,88.32Z" transform="translate(0.27 0)"/><path class="cls-7" d="M367.24,95.59a4.55,4.55,0,0,1-2.25,4,4.43,4.43,0,0,1-2.3.62,4.59,4.59,0,0,1-2.36-.62,4.38,4.38,0,0,1-1.63-1.65,4.78,4.78,0,0,1-.58-2.32,4.85,4.85,0,0,1,.58-2.36,4.25,4.25,0,0,1,1.63-1.63,4.72,4.72,0,0,1,2.36-.59,4.56,4.56,0,0,1,4.55,4.58Zm-4.55,2.93a2.7,2.7,0,0,0,2.38-1.47,3.1,3.1,0,0,0,0-2.9,2.71,2.71,0,0,0-1-1.08,2.56,2.56,0,0,0-1.41-.41,2.61,2.61,0,0,0-1.39.4,2.81,2.81,0,0,0-1,1.08,3,3,0,0,0,0,2.91,2.71,2.71,0,0,0,1,1.07A2.68,2.68,0,0,0,362.69,98.52Z" transform="translate(0.27 0)"/><path class="cls-7" d="M376.79,94.08V98.4h1.45v1.52h-3.16V94.19a2.24,2.24,0,0,0-.23-1.17.87.87,0,0,0-.78-.36,4.33,4.33,0,0,0-2.56,1.13V98.4H373v1.52H368.3V98.4h1.53V92.77H368.3V91.24h3.21v1.05a5.18,5.18,0,0,1,3-1.16,2.05,2.05,0,0,1,1.72.71A3.67,3.67,0,0,1,376.79,94.08Z" transform="translate(0.27 0)"/><path class="cls-7" d="M384.47,91.61v-.37H386v2.88h-1.49v-.53a2.35,2.35,0,0,0-2-1.06,1.91,1.91,0,0,0-1.11.3.89.89,0,0,0-.43.76.78.78,0,0,0,.33.67,3.88,3.88,0,0,0,1.46.42l1.15.22c1.71.31,2.57,1.15,2.57,2.52a2.31,2.31,0,0,1-.93,1.92,3.85,3.85,0,0,1-2.46.73,4.17,4.17,0,0,1-1.21-.18,3.57,3.57,0,0,1-1-.44v.47h-1.52V97h1.52v.3a1.5,1.5,0,0,0,.7,1,2.36,2.36,0,0,0,1.33.38,2.54,2.54,0,0,0,1.31-.29,1,1,0,0,0,.48-.87.68.68,0,0,0-.38-.63,6,6,0,0,0-1.53-.44l-.88-.19a3.46,3.46,0,0,1-1.92-.91,2.25,2.25,0,0,1-.61-1.64,2.1,2.1,0,0,1,.45-1.38,2.75,2.75,0,0,1,1.15-.86,3.6,3.6,0,0,1,1.44-.29A4.23,4.23,0,0,1,384.47,91.61Z" transform="translate(0.27 0)"/></g></g><g class="cls-6"><g class="cls-6"><path class="cls-7" d="M138.91,30.83l6.32,16.6,6.3-16.6h-4.07V25.68h14v5.15H157l-9.33,24.62H142.5L133,30.83H127.8V25.68h14.93v5.15Z" transform="translate(0.27 0)"/></g><g class="cls-6"><path class="cls-7" d="M192.19,37.38V48.21h4.74V55h-14V52.67a14,14,0,0,1-8,2.73,11.47,11.47,0,0,1-7.72-2.48,8.37,8.37,0,0,1-2.9-6.69,8.81,8.81,0,0,1,3.25-7.14,14.85,14.85,0,0,1,11.95-2.29,18.83,18.83,0,0,1,3.38,1.38V35.84a4.7,4.7,0,0,0-1.39-3.56,5.83,5.83,0,0,0-4.18-1.34A7.37,7.37,0,0,0,172,33.28l-7.52-1.36Q167.85,25,178.57,25q7.37,0,10.49,3T192.19,37.38ZM177,49.58c1.68,0,3.63-1,5.88-3V44a10.33,10.33,0,0,0-5.51-2,4.48,4.48,0,0,0-3.07,1,3.45,3.45,0,0,0-1.06,2.7C173.25,48.27,174.51,49.58,177,49.58Z" transform="translate(0.27 0)"/><path class="cls-7" d="M225,25.34v8.78a19.12,19.12,0,0,0-6.12,1.21,7,7,0,0,0-3.51,3.3,14.63,14.63,0,0,0-1.24,6.68v2.9h5.83V55H199.38V48.21h5.37V32.53h-5.09V25.68H213.3v7.43a11.22,11.22,0,0,1,3.82-5.59A10.69,10.69,0,0,1,224,25.29,6.76,6.76,0,0,1,225,25.34Z" transform="translate(0.27 0)"/><path class="cls-7" d="M246.39,48.21V55H228.32V48.21h4.45V32.53h-4.45V25.68h13.73V48.21Zm-3.76-30.86A4.89,4.89,0,0,1,241.12,21a5.16,5.16,0,0,1-8.76-3.69,5.14,5.14,0,0,1,10.27,0Z" transform="translate(0.27 0)"/><path class="cls-7" d="M277.53,37.38V48.21h4.74V55h-14V52.67a14,14,0,0,1-8,2.73,11.46,11.46,0,0,1-7.71-2.48,8.37,8.37,0,0,1-2.9-6.69,8.79,8.79,0,0,1,3.25-7.14,13.08,13.08,0,0,1,8.62-2.69,12.85,12.85,0,0,1,3.32.4,18.6,18.6,0,0,1,3.39,1.38V35.84a4.74,4.74,0,0,0-1.39-3.56,5.85,5.85,0,0,0-4.18-1.34,7.39,7.39,0,0,0-5.38,2.34l-7.52-1.36Q253.2,25,263.91,25q7.35,0,10.49,3T277.53,37.38Zm-15.18,12.2c1.67,0,3.63-1,5.88-3V44a10.39,10.39,0,0,0-5.52-2,4.47,4.47,0,0,0-3.06,1,3.42,3.42,0,0,0-1.06,2.7Q258.59,49.58,262.35,49.58Z" transform="translate(0.27 0)"/></g><g class="cls-6"><path class="cls-7" d="M313.52,35.26V49.83h4.9V55H307.76V35.62a7.36,7.36,0,0,0-.8-3.95,2.88,2.88,0,0,0-2.6-1.2q-3.84,0-8.64,3.79V49.83h5V55H284.89V49.83H290v-19h-5.15V25.68h10.83v3.54q5.38-3.93,10.11-3.93,3.93,0,5.81,2.42C312.9,29.33,313.52,31.84,313.52,35.26Z" transform="translate(0.27 0)"/><path class="cls-7" d="M344.27,27.79V25.68h5.12V36.76h-5.12a6.67,6.67,0,0,0-2.56-4.88,8.3,8.3,0,0,0-5.16-1.69,7.86,7.86,0,0,0-4.49,1.34A8.73,8.73,0,0,0,329,35.15a11.49,11.49,0,0,0-1.09,5,11.27,11.27,0,0,0,2.45,7.51,8,8,0,0,0,6.47,2.91,8.92,8.92,0,0,0,8.77-5.77l4.79,2.29q-4,8.74-13.82,8.74a14.65,14.65,0,0,1-7.77-2.06,14,14,0,0,1-5.25-5.65,17.2,17.2,0,0,1-1.85-8,16.29,16.29,0,0,1,1.88-7.8,13.86,13.86,0,0,1,12.49-7.43A12.3,12.3,0,0,1,344.27,27.79Z" transform="translate(0.27 0)"/><path class="cls-7" d="M384.82,41.78H360.28a10.31,10.31,0,0,0,3.26,6.64,9.71,9.71,0,0,0,6.69,2.44,12.14,12.14,0,0,0,5.37-1.2A10.5,10.5,0,0,0,379.75,46l5.07,2.29a15.57,15.57,0,0,1-6.28,5.64,18.94,18.94,0,0,1-8.45,1.9,17.55,17.55,0,0,1-8.41-2A14.36,14.36,0,0,1,356,48.32a15.64,15.64,0,0,1-2-8,15.68,15.68,0,0,1,2-7.94,14.52,14.52,0,0,1,5.52-5.53,16.48,16.48,0,0,1,15.81.06,14.32,14.32,0,0,1,5.42,5.84A20.69,20.69,0,0,1,384.82,41.78ZM369.31,29.69a8.3,8.3,0,0,0-5.71,2.19,10,10,0,0,0-3.15,5.77h18.33a10.16,10.16,0,0,0-3.43-5.77A9.13,9.13,0,0,0,369.31,29.69Z" transform="translate(0.27 0)"/></g></g></svg>