<svg id="Layer_1" data-name="Layer 1" xmlns="http://www.w3.org/2000/svg" xmlns:xlink="http://www.w3.org/1999/xlink" viewBox="0 0 387 109.46"><defs><style>.cls-1{fill:#fff;}.cls-2{fill:url(#linear-gradient);}.cls-3{fill:url(#linear-gradient-2);}.cls-4{fill:url(#linear-gradient-3);}.cls-5{fill:url(#linear-gradient-4);}.cls-6{font-size:16.91px;}.cls-10,.cls-6{fill:#353535;font-family:Rockwell-Regular, Rockwell;}.cls-7{letter-spacing:-0.06em;}.cls-8{letter-spacing:0em;}.cls-9{letter-spacing:0.04em;}.cls-10{font-size:57.04px;}.cls-11{font-family:Rockwell-Bold, Rockwell;font-weight:700;}</style><linearGradient id="linear-gradient" x1="94.15" y1="36.44" x2="116.04" y2="58.32" gradientUnits="userSpaceOnUse"><stop offset="0" stop-color="#cbcbcb"/><stop offset="0.24" stop-color="#cbcbb4"/><stop offset="0.75" stop-color="#cbcb78"/><stop offset="1" stop-color="#cbcb58"/></linearGradient><linearGradient id="linear-gradient-2" x1="61.82" y1="23.39" x2="102.35" y2="23.39" gradientUnits="userSpaceOnUse"><stop offset="0" stop-color="#4aa179"/><stop offset="1" stop-color="#82ab68"/></linearGradient><linearGradient id="linear-gradient-3" x1="79.91" y1="41.55" x2="79.91" y2="23.68" gradientUnits="userSpaceOnUse"><stop offset="0" stop-color="#e5e5e5"/><stop offset="0.25" stop-color="#e0e0ce"/><stop offset="0.76" stop-color="#d2d292"/><stop offset="1" stop-color="#cbcb74"/></linearGradient><linearGradient id="linear-gradient-4" x1="98.44" y1="98.5" x2="18.93" y2="18.99" gradientUnits="userSpaceOnUse"><stop offset="0" stop-color="#ffc145"/><stop offset="1" stop-color="#299b81"/></linearGradient></defs><path class="cls-1" d="M229.49,84.82a1.5,1.5,0,0,0,0-3,1.5,1.5,0,0,0,0,3Z" transform="translate(-5 -5.06)"/><path class="cls-2" d="M114.47,59.8v.1H100l-.09,0a42.15,42.15,0,0,0-5.82-11.75c.4-.69,5.37-9.43,6-17.69l5.88,0A54.45,54.45,0,0,1,114.47,59.8Z" transform="translate(-5 -5.06)"/><path class="cls-3" d="M97.06,19.85c2.67,2.8,3.35,6.66,3,10.64l-40.37-.17h-.1s5.84-6.85,13.08-10.47c6.05-3,17.83-6,23.87-.47C96.74,19.53,96.91,19.69,97.06,19.85Z" transform="translate(-5 -5.06)"/><path class="cls-4" d="M59.73,30.32l40.37.17c-.66,8.26-5.63,17-6,17.69A42,42,0,0,0,59.73,30.42Z" transform="translate(-5 -5.06)"/><path class="cls-5" d="M100,59.9h14.49a54.73,54.73,0,0,1-54.19,54.62A42.09,42.09,0,0,0,99.89,59.93ZM96.61,19.35l0,0c.16.15.33.31.48.47,2.67,2.8,3.35,6.66,3,10.64l5.88,0A54.76,54.76,0,0,0,96.61,19.35ZM59.73,5.06a54.73,54.73,0,0,0-.54,109.46,42.05,42.05,0,0,1,.54-84.1v-.1h-.1s5.84-6.85,13.08-10.47c6.05-3,17.83-6,23.87-.47l0,0A54.52,54.52,0,0,0,59.73,5.06Z" transform="translate(-5 -5.06)"/><path class="cls-1" d="M298.79,74a1.5,1.5,0,0,0,0-3,1.5,1.5,0,0,0,0,3Z" transform="translate(-5 -5.06)"/><text class="cls-6" transform="translate(174.38 82.31)">f<tspan class="cls-7" x="5.34" y="0">r</tspan><tspan class="cls-8" x="11.99" y="0">ont</tspan><tspan class="cls-9" x="38.58" y="0">-</tspan><tspan x="45.75" y="0">end development &amp;</tspan><tspan x="-13.25" y="17.61">web accessibility solutions</tspan></text><text class="cls-10" transform="translate(126.88 54.95)">v<tspan class="cls-11" x="35.54" y="0">aria</tspan><tspan x="156.59" y="0">nce</tspan></text></svg>